<svg xmlns="http://www.w3.org/2000/svg" version="1.1" viewBox="-5.0 -10.0 110.0 135.0">
 <path d="m80.371 30.449v11.203c0 0.082031-0.054688 0.14844-0.13281 0.16797-0.32422 0.074219-0.64062 0.19141-0.94922 0.34766l-10.875 5.5117c-0.0625 0.03125-0.13281 0.023437-0.1875-0.019532-0.054687-0.046875-0.074218-0.11328-0.054687-0.17969 1.3359-4.4883-2.0078-9.1562-6.8398-9.1562-3.9375 0-7.1328 3.1953-7.1328 7.1328 0 1.3711 0.38672 2.6523 1.0586 3.7383 0.035157 0.054688 0.035157 0.11719 0.003907 0.17578-0.03125 0.054687-0.085938 0.089844-0.14844 0.089844h-9.9727c-0.0625 0-0.11328-0.03125-0.14844-0.082032-0.03125-0.054687-0.035157-0.11328-0.003907-0.16797 2.4297-4.6406-0.90234-10.406-6.3125-10.406-4.5898 0-7.9141 4.2578-6.9531 8.6328 0.015625 0.066406-0.007812 0.13281-0.0625 0.17188-0.054687 0.042969-0.12109 0.046875-0.18359 0.015625l-10.758-5.4531c-0.30859-0.15625-0.62891-0.26953-0.94922-0.34766-0.078125-0.019531-0.13281-0.085938-0.13281-0.16797l-0.007813-11.207c0-0.078125 0.050782-0.14453 0.125-0.16406 0.074219-0.019531 0.15234 0.011719 0.19531 0.078125 3.7539 6.3164 12.562 7.5391 17.871 2.2266 0.74609-0.74609 1.3867-1.5938 1.9062-2.5234 0.03125-0.054687 0.085938-0.089844 0.14844-0.089844s0.11719 0.03125 0.14844 0.089844c3.6562 6.5742 12.652 7.9141 18.043 2.5234 0.74609-0.74609 1.3867-1.5938 1.9062-2.5234 0.03125-0.054687 0.085938-0.089844 0.14844-0.089844s0.11719 0.03125 0.14844 0.089844c3.6523 6.5703 12.652 7.9141 18.043 2.5234 0.66797-0.66797 1.25-1.4141 1.7344-2.2305 0.039063-0.066406 0.11719-0.097656 0.19141-0.078125 0.082031 0.019531 0.13281 0.085938 0.13281 0.16797zm-1.5781-4.6445h-17.09c-0.050781 0-0.097656 0.019531-0.13281 0.0625-0.035156 0.039062-0.046874 0.089843-0.039062 0.14062 0.71094 4.1992 4.3672 7.3516 8.7148 7.3516s8.0039-3.1523 8.7148-7.3516c0.007812-0.050781-0.003907-0.097656-0.039063-0.14062-0.03125-0.039063-0.078125-0.0625-0.12891-0.0625zm-18.707-6.0664 0.96875 3.3711c0.023437 0.074219 0.085937 0.125 0.16406 0.125h15.973c0.070313 0 0.12891-0.039063 0.15625-0.10156s0.019532-0.13281-0.027344-0.18359l-13.77-15.977c-0.035156-0.039062-0.078125-0.058594-0.12891-0.058594h-6.793c-0.054687 0-0.10547 0.023438-0.13672 0.070313-0.035157 0.042969-0.042969 0.097656-0.027344 0.15234zm-1.543 6.0664h-17.086c-0.050781 0-0.097656 0.019531-0.13281 0.0625-0.035157 0.039062-0.046875 0.089843-0.039063 0.14062 0.71094 4.1992 4.3672 7.3516 8.7148 7.3516s8.0039-3.1523 8.7148-7.3516c0.007812-0.050781-0.003906-0.10156-0.039063-0.14062-0.035156-0.039063-0.078125-0.0625-0.13281-0.0625zm-15.883-6.3164 3.5781-12.453c0.023438-0.074218 0.085938-0.125 0.16406-0.125h7.1953c0.078125 0 0.14453 0.050782 0.16406 0.125l4.5898 15.977c0.015626 0.054687 0.003907 0.10547-0.027343 0.15234-0.035157 0.042969-0.082031 0.070313-0.13672 0.070313h-16.375c-0.054688 0-0.10547-0.023437-0.13672-0.070313-0.035156-0.042968-0.042969-0.097656-0.027343-0.15234zm-4.3633 6.3164h-17.09c-0.050781 0-0.097656 0.019531-0.13281 0.0625-0.035157 0.039062-0.046875 0.089843-0.039063 0.14062 0.71094 4.1992 4.3672 7.3516 8.7148 7.3516s8.0039-3.1523 8.7148-7.3516c0.007812-0.050781-0.003906-0.10156-0.039063-0.14062-0.03125-0.039063-0.078125-0.0625-0.12891-0.0625zm-12.641-6.3164-2.9805 3.4609c-0.042969 0.050781-0.054687 0.12109-0.027343 0.18359 0.027343 0.0625 0.085937 0.10156 0.15625 0.10156h15.973c0.078125 0 0.14453-0.050781 0.16406-0.125l4.5898-15.977c0.015625-0.054687 0.003906-0.10547-0.027344-0.15234-0.035156-0.042969-0.082031-0.070313-0.13672-0.070313h-6.793c-0.050781 0-0.097657 0.019532-0.12891 0.058594zm35.672 21.434c-2.5039 0-4.5312 2.0273-4.5312 4.5312s2.0273 4.5312 4.5312 4.5312 4.5312-2.0273 4.5312-4.5312-2.0273-4.5312-4.5312-4.5312zm5.9688 10.207c-1.2148 0.61719-2.3828 0.89453-3.7461 0.89453h-27.098c-1.3633 0-2.5312-0.27734-3.7461-0.89453l-13.16-6.668c-0.75781-0.38281-1.668-0.14063-2.1328 0.57031l-0.16016 0.24219c-0.49219 0.74609-0.30078 1.7461 0.42969 2.2617l14.211 10.047c0.87109 0.61328 1.3477 1.5664 1.2383 2.625l-0.86719 8.2227c0 0.007812 0 0.011718-0.003906 0.019531l-4.9023 22.07c-0.23438 1.0508 0.3125 2.1133 1.3398 2.4414l0.09375 0.03125c1.0195 0.32812 2.1133-0.19141 2.5078-1.1875v-0.003907l7.207-20.129c0.023438-0.070313 0.089844-0.11328 0.16016-0.11328 0.074219 0 0.13672 0.042968 0.16016 0.11328l7.2109 20.129v0.003907c0.52344 1.3906 2.2852 1.6367 3.2852 0.77344 0.38672-0.33594 0.95312-0.33594 1.3438 0 1 0.85938 2.7812 0.63281 3.2891-0.77344l7.2109-20.133c0.023437-0.070313 0.089843-0.11328 0.16016-0.11328 0.074219 0 0.13672 0.042968 0.16016 0.11328l7.207 20.129v0.003907c0.39063 0.99609 1.4883 1.5156 2.5078 1.1875l0.09375-0.03125c1.0234-0.32813 1.5703-1.3906 1.3398-2.4414l-4.8984-22.07c0-0.007813-0.003906-0.011719-0.003906-0.019531l-0.86719-8.2227c-0.11328-1.0586 0.36719-2.0117 1.2383-2.625l14.211-10.047c0.73047-0.51562 0.91797-1.5156 0.42969-2.2617l-0.16016-0.24219c-0.46484-0.70703-1.3789-0.95312-2.1328-0.57031zm-17.129 38.719c-0.039063 0.17969-0.29688 0.17969-0.33594 0l-4.75-21.398c0-0.007813-0.003906-0.011719-0.003906-0.019531l-0.86719-8.2227c-0.11328-1.0586 0.36719-2.0117 1.2383-2.625l4.4531-3.1484c0.0625-0.042969 0.13672-0.042969 0.19922 0l4.4531 3.1484c0.86719 0.61328 1.3477 1.5664 1.2383 2.625l-0.86719 8.2227c0 0.007812 0 0.011718-0.003906 0.019531zm-11.496-48.48c-2.5117 0-4.543 2.0352-4.543 4.543 0 2.5117 2.0352 4.543 4.543 4.543 2.5117 0 4.543-2.0352 4.543-4.543 0-2.5078-2.0352-4.543-4.543-4.543zm41.699 11.023v16.898c0 0.09375-0.078125 0.17188-0.17188 0.17188h-9.4609c-0.082031 0-0.14844-0.054688-0.16797-0.13281l-0.28906-1.293c0-0.007812-0.003906-0.011718-0.003906-0.019531l-0.85156-8.0781c-0.011719-0.11719 0.074219-0.19141 0.16406-0.25781l10.508-7.4297c0.054688-0.039062 0.12109-0.042969 0.17969-0.011719 0.0625 0.03125 0.09375 0.085938 0.09375 0.15234zm-28.449 17.074h-3.8438c-0.082031 0-0.14844-0.054688-0.16797-0.13281l-0.28906-1.293c0-0.007812-0.003906-0.011718-0.003906-0.019531l-0.85156-8.0781c-0.011719-0.11719 0.074219-0.19141 0.16406-0.25781l2.9688-2.0977c0.0625-0.042969 0.13672-0.042969 0.19922 0l2.9688 2.0977c0.09375 0.066406 0.17578 0.13672 0.16406 0.25781l-0.85156 8.0781c0 0.007813 0 0.011719-0.003906 0.019531l-0.28906 1.293c-0.015626 0.074219-0.082032 0.13281-0.16406 0.13281zm-22.66 0h-9.4609c-0.09375 0-0.17188-0.078125-0.17188-0.17188v-16.902c0-0.066406 0.035156-0.12109 0.09375-0.15234s0.125-0.027343 0.17969 0.011719l10.508 7.4297c0.09375 0.066406 0.17578 0.13672 0.16406 0.25781l-0.85156 8.0781c0 0.007813 0 0.011719-0.003906 0.019531l-0.28906 1.293c-0.019532 0.078125-0.085938 0.13672-0.16797 0.13672z" fill-rule="evenodd"/>
<text x="0.0" y="117.5" font-size="5.0" font-weight="bold" font-family="Arbeit Regular, Helvetica, Arial-Unicode, Arial, Sans-serif" fill="#000000">Created by gravisio</text><text x="0.0" y="122.5" font-size="5.0" font-weight="bold" font-family="Arbeit Regular, Helvetica, Arial-Unicode, Arial, Sans-serif" fill="#000000">from Noun Project</text></svg>